<svg id="Capa_1" enable-background="new 0 0 512 512" height="512" viewBox="0 0 512 512" width="512" xmlns="http://www.w3.org/2000/svg"><g><path d="m396 192h-55v-45c0-46.869-38.131-85-85-85s-85 38.131-85 85v45h-55c-8.284 0-15 6.716-15 15v60c0 80.407 61.545 146.702 140 154.272v60.728h-37.5c-8.284 0-15 6.716-15 15s6.716 15 15 15h105c8.284 0 15-6.716 15-15s-6.716-15-15-15h-37.5v-60.728c78.455-7.569 140-73.865 140-154.272v-60c0-8.284-6.716-15-15-15zm-195-45c0-30.327 24.673-55 55-55s55 24.673 55 55v120c0 30.327-24.673 55-55 55s-55-24.673-55-55zm180 120c0 68.925-56.075 125-125 125s-125-56.075-125-125v-45h40v45c0 46.869 38.131 85 85 85s85-38.131 85-85v-45h40z"/><circle cx="377" cy="99.853" r="15"/><path d="m430.033 46.82c-5.856-5.857-15.354-5.858-21.213 0-5.858 5.858-5.858 15.355 0 21.213 17.545 17.545 17.545 46.095 0 63.64-5.858 5.858-5.858 15.355 0 21.213 2.929 2.929 6.768 4.393 10.606 4.393s7.678-1.465 10.606-4.394c29.243-29.242 29.243-76.822.001-106.065z"/><path d="m472.459 4.394c-5.857-5.858-15.355-5.858-21.213 0s-5.858 15.355 0 21.213c19.832 19.832 30.754 46.199 30.754 74.246s-10.922 54.415-30.754 74.247c-5.858 5.857-5.858 15.355 0 21.213 2.929 2.929 6.768 4.394 10.606 4.394s7.678-1.465 10.606-4.394c25.499-25.499 39.542-59.4 39.542-95.46s-14.043-69.961-39.541-95.459z"/><circle cx="135" cy="99.853" r="15"/><path d="m103.18 131.673c-17.545-17.545-17.545-46.095 0-63.64 5.858-5.858 5.858-15.355 0-21.213-5.857-5.857-15.355-5.857-21.213 0-29.241 29.243-29.241 76.823 0 106.066 2.929 2.929 6.768 4.394 10.606 4.394s7.678-1.465 10.606-4.393c5.859-5.858 5.859-15.356.001-21.214z"/><path d="m30 99.853c0-28.046 10.922-54.414 30.754-74.246 5.858-5.857 5.858-15.355 0-21.213-5.856-5.857-15.354-5.858-21.213 0-25.498 25.498-39.541 59.399-39.541 95.459s14.043 69.961 39.541 95.459c2.929 2.929 6.768 4.394 10.606 4.394s7.678-1.464 10.606-4.394c5.858-5.858 5.858-15.355 0-21.213-19.831-19.832-30.753-46.199-30.753-74.246z"/></g></svg>